{
    "accessors": [{
        "bufferView": 0,
        "byteOffset": 0,
        "componentType": 5126,
        "normalized": false,
        "count": 27,
        "type": "SCALAR",
        "max": [1.0333333333333334],
        "min": [0]
    }, {
        "bufferView": 0,
        "byteOffset": 108,
        "componentType": 5126,
        "normalized": false,
        "count": 27,
        "type": "VEC3",
        "max": [2.4760096073150635, 63.1889533996582, 109.8290786743164],
        "min": [-0.27938759326934814, 57.916847229003906, 1.3214184045791626]
    }],
    "animations": [{
        "channels": [{
            "sampler": 0,
            "target": {
                "node": -1,
                "path": "translation"
            }
        }],
        "samplers": [{
            "input": 0,
            "interpolation": "CUBICSPLINE",
            "output": 1
        }],
        "name": "mixamo.com"
    }],
    "asset": {
        "generator": "Aspose.3D 24.4.1",
        "version": "2.0"
    },
    "buffers": [{
        "uri": "data:application/octet-stream;base64,",
        "byteLength": 436
    }],
    "bufferViews": [{
        "buffer": 0,
        "byteOffset": 0,
        "byteLength": 432
    }],
    "scene": 0,
    "scenes": [{}],
    
    
    "nodes": [
        {
            "name": "node1",
            "translation": [0, 0, 0],
            "rotation": [0, 0, 0, 1],
            "scale": [1, 1, 1]
        },
        {
            "name": "node2",
            "translation": [1, 0, 0],
            "rotation": [0, 0, 0, 1],
            "scale": [1, 1, 1],
            "children": [0]
        }
    ]

}
